<?xml version="1.0" encoding="UTF-8" standalone="no"?>
<!-- Created with Inkscape (http://www.inkscape.org/) -->

<svg
   version="1.1"
   id="svg2"
   width="381.55334"
   height="381.72665"
   viewBox="0 0 381.55335 381.72665"
   sodipodi:docname="dharma-initiative-seeklogo.svg"
   inkscape:version="1.3.2 (091e20e, 2023-11-25, custom)"
   inkscape:export-filename="whitelogo.svg"
   inkscape:export-xdpi="96"
   inkscape:export-ydpi="96"
   inkscape:dataloss="true"
   xmlns:inkscape="http://www.inkscape.org/namespaces/inkscape"
   xmlns:sodipodi="http://sodipodi.sourceforge.net/DTD/sodipodi-0.dtd"
   xmlns="http://www.w3.org/2000/svg"
   xmlns:svg="http://www.w3.org/2000/svg">
  <defs
     id="defs6" />
  <sodipodi:namedview
     id="namedview4"
     pagecolor="#ffffff"
     bordercolor="#000000"
     borderopacity="0.25"
     inkscape:showpageshadow="2"
     inkscape:pageopacity="0.0"
     inkscape:pagecheckerboard="0"
     inkscape:deskcolor="#d1d1d1"
     showgrid="false"
     inkscape:zoom="1.7368949"
     inkscape:cx="239.50787"
     inkscape:cy="239.22"
     inkscape:window-width="1920"
     inkscape:window-height="1027"
     inkscape:window-x="1912"
     inkscape:window-y="-8"
     inkscape:window-maximized="1"
     inkscape:current-layer="g10" />
  <g
     id="g8"
     inkscape:groupmode="layer"
     inkscape:label="ink_ext_XXXXXX"
     transform="matrix(1.3333333,0,0,-1.3333333,-46.785297,429.93918)">
    <g
       id="g10"
       transform="matrix(0.1,0,0,0.1,-2.1590265,-0.86360946)">
      <path
         d="m 2529.99,1793.16 c 0,-407.31 -330.19,-737.49 -737.5,-737.49 -407.3,0 -737.49,330.18 -737.49,737.49 0,407.32 330.19,737.5 737.49,737.5 407.31,0 737.5,-330.18 737.5,-737.5"
         style="fill:#ffffff;fill-opacity:1;fill-rule:nonzero;stroke:none"
         id="path14" />
      <path
         d="m 1321.67,3233.18 h 925 c 0,0 102.5,-5 -10,-115 h -880 c 0,0 -90,75 -35,115"
         style="fill:#ffffff;fill-opacity:1;fill-rule:nonzero;stroke:none"
         id="path28" />
      <path
         d="m 3234.13,2263.96 v -924.99 c 0,0 -5,-102.5 -115,10 v 879.99 c 0,0 75,90 115,35"
         style="fill:#ffffff;fill-opacity:1;fill-rule:nonzero;stroke:none"
         id="path30" />
      <path
         d="m 372.48,1327.37 v 924.99 c 0,0 5,102.5 115,-10 v -879.99 c 0,0 -75,-90 -115,-35"
         style="fill:#ffffff;fill-opacity:1;fill-rule:nonzero;stroke:none"
         id="path32" />
      <path
         d="M 3153.13,1120.85 2499.07,466.789 c 0,0 -76.02,-68.937 -74.25,88.391 l 622.25,622.25 c 0,0 116.68,10.6 106.06,-56.58"
         style="fill:#ffffff;fill-opacity:1;fill-rule:nonzero;stroke:none"
         id="path34" />
      <path
         d="M 2950.4,1214.79 2413.65,678.039 c 0,0 -63.01,-55.937 -75.52,87.121 l 510.63,510.64 c 0,0 105.26,-0.81 101.64,-61.01"
         style="fill:#ffffff;fill-opacity:1;fill-rule:nonzero;stroke:none"
         id="path36" />
      <path
         d="m 2190.55,575.672 h -759.07 c 0,0 -84.11,5 8.2,115 h 722.15 c 0,0 73.85,-75 28.72,-115"
         style="fill:#ffffff;fill-opacity:1;fill-rule:nonzero;stroke:none"
         id="path38" />
      <path
         d="m 2736.14,1293.86 -411.6,-411.598 c 0,0 -49.14,-42.071 -76.87,85.769 l 391.56,391.559 c 0,0 93.09,-12.97 96.91,-65.73"
         style="fill:#ffffff;fill-opacity:1;fill-rule:nonzero;stroke:none"
         id="path40" />
      <path
         d="m 1281.49,874.5 -411.611,411.6 c 0,0 -42.07,49.14 85.769,76.86 L 1347.22,971.398 c 0,0 -12.98,-93.078 -65.73,-96.898"
         style="fill:#ffffff;fill-opacity:1;fill-rule:nonzero;stroke:none"
         id="path42" />
      <path
         d="m 1500.02,2810.68 h 580.08 c 0,0 64.27,-5 -6.28,-115 h -551.85 c 0,0 -56.44,75 -21.95,115"
         style="fill:#ffffff;fill-opacity:1;fill-rule:nonzero;stroke:none"
         id="path44" />
      <path
         d="m 869.938,2313.22 410.182,410.18 c 0,0 48.98,41.91 76.88,-85.76 L 966.777,2247.42 c 0,0 -92.941,13.12 -96.839,65.8"
         style="fill:#ffffff;fill-opacity:1;fill-rule:nonzero;stroke:none"
         id="path46" />
      <path
         d="m 3028.71,2194.25 v -758.41 c 0,0 -5,-84.02 -115,8.22 v 721.49 c 0,0 75,73.8 115,28.7"
         style="fill:#ffffff;fill-opacity:1;fill-rule:nonzero;stroke:none"
         id="path48" />
      <path
         d="m 658.543,2390.13 536.287,536.29 c 0,0 62.94,55.87 75.5,-87.14 L 760.152,2329.11 c 0,0 -105.214,0.85 -101.609,61.02"
         style="fill:#ffffff;fill-opacity:1;fill-rule:nonzero;stroke:none"
         id="path50" />
      <path
         d="m 1391.96,3028.59 h 326.88 c 0,0 43.75,-7.86 36.04,-62.89 0,0 7.71,-55.02 -51.48,-55.02 -59.21,0 -275.41,0 -275.41,0 0,0 -72.07,52.41 -36.03,117.91"
         style="fill:#ffffff;fill-opacity:1;fill-rule:nonzero;stroke:none"
         id="path52" />
      <path
         d="m 2202.8,3028.59 h -316.16 c 0,0 -42.33,-7.86 -34.85,-62.89 0,0 -7.48,-55.02 49.79,-55.02 57.25,0 266.37,0 266.37,0 0,0 69.71,52.41 34.85,117.91"
         style="fill:#ffffff;fill-opacity:1;fill-rule:nonzero;stroke:none"
         id="path54" />
      <path
         d="m 2385.75,2961.16 233.32,-233.32 c 0,0 25.66,-36.79 -18.75,-70.2 0,0 -33.41,-44.41 -75.67,-2.16 -42.25,42.25 -196.57,196.57 -196.57,196.57 0,0 -14.37,88.5 57.67,109.11"
         style="fill:#ffffff;fill-opacity:1;fill-rule:nonzero;stroke:none"
         id="path56" />
      <path
         d="m 2959.1,2387.8 -221.52,221.52 c 0,0 -35.21,24.09 -68.89,-20.05 0,0 -44.13,-33.69 -4.03,-73.8 40.12,-40.12 186.63,-186.63 186.63,-186.63 0,0 85.9,-11.77 107.81,58.96"
         style="fill:#ffffff;fill-opacity:1;fill-rule:nonzero;stroke:none"
         id="path58" />
      <path
         d="m 2480.53,3156.36 280.73,-280.73 c 0,0 32.01,-43.13 -13.52,-75.42 0,0 -32.3,-45.53 -83.13,5.3 -50.85,50.84 -236.51,236.52 -236.51,236.52 0,0 -24.83,98.95 52.43,114.33"
         style="fill:#ffffff;fill-opacity:1;fill-rule:nonzero;stroke:none"
         id="path60" />
      <path
         d="M 3163.93,2472.96 2883.2,2753.7 c 0,0 -43.14,32.01 -75.43,-13.53 0,0 -45.53,-32.28 5.31,-83.12 50.84,-50.84 236.52,-236.53 236.52,-236.53 0,0 98.95,-24.82 114.33,52.44"
         style="fill:#ffffff;fill-opacity:1;fill-rule:nonzero;stroke:none"
         id="path62" />
      <path
         d="m 443.801,2462.96 280.73,280.74 c 0,0 43.129,32 75.422,-13.52 0,0 45.531,-32.3 -5.301,-83.13 -50.839,-50.85 -236.523,-236.52 -236.523,-236.52 0,0 -98.949,-24.83 -114.328,52.43"
         style="fill:#ffffff;fill-opacity:1;fill-rule:nonzero;stroke:none"
         id="path64" />
      <path
         d="M 1127.2,3146.37 846.465,2865.63 c 0,0 -32.012,-43.13 13.527,-75.42 0,0 32.285,-45.53 83.117,5.31 50.84,50.84 236.531,236.51 236.531,236.51 0,0 24.82,98.95 -52.44,114.34"
         style="fill:#ffffff;fill-opacity:1;fill-rule:nonzero;stroke:none"
         id="path66" />
      <path
         d="m 1213.65,646.461 -233.322,233.32 c 0,0 -25.664,36.789 18.75,70.188 0,0 33.412,44.422 75.672,2.16 42.25,-42.238 196.57,-196.559 196.57,-196.559 0,0 14.37,-88.5 -57.67,-109.109"
         style="fill:#ffffff;fill-opacity:1;fill-rule:nonzero;stroke:none"
         id="path68" />
      <path
         d="M 650.297,1209.81 871.813,988.301 c 0,0 35.214,-24.102 68.894,20.039 0,0 44.133,33.7 4.023,73.81 -40.117,40.12 -186.628,186.62 -186.628,186.62 0,0 -85.899,11.78 -107.805,-58.96"
         style="fill:#ffffff;fill-opacity:1;fill-rule:nonzero;stroke:none"
         id="path70" />
      <path
         d="M 1128.87,441.262 848.129,721.988 c 0,0 -32,43.133 13.527,75.422 0,0 32.293,45.52 83.125,-5.301 C 995.629,741.27 1181.3,555.59 1181.3,555.59 c 0,0 24.83,-98.949 -52.43,-114.328"
         style="fill:#ffffff;fill-opacity:1;fill-rule:nonzero;stroke:none"
         id="path72" />
      <path
         d="m 445.465,1124.65 280.73,-280.728 c 0,0 43.137,-32.012 75.43,13.527 0,0 45.527,32.281 -5.312,83.121 -50.84,50.84 -236.512,236.52 -236.512,236.52 0,0 -98.957,24.83 -114.336,-52.44"
         style="fill:#ffffff;fill-opacity:1;fill-rule:nonzero;stroke:none"
         id="path74" />
      <path
         d="m 2293.66,2743.24 166.18,-166.17 c 0,0 16.66,-27.81 -26.16,-62.8 0,0 -35,-42.82 -65.1,-12.74 -30.09,30.09 -139.97,140.01 -139.97,140.01 0,0 0.42,73.69 65.05,101.7"
         style="fill:#ffffff;fill-opacity:1;fill-rule:nonzero;stroke:none"
         id="path76" />
      <path
         d="m 2734.27,2302.63 -161.64,161.63 c 0,0 -27.2,16.08 -62.3,-26.66 0,0 -42.72,-35.09 -13.43,-64.36 29.26,-29.27 136.15,-136.17 136.15,-136.17 0,0 72.71,1.42 101.22,65.56"
         style="fill:#ffffff;fill-opacity:1;fill-rule:nonzero;stroke:none"
         id="path78" />
      <path
         d="m 571.129,1390.3 v 329.96 c 0,0 7.867,44.17 62.891,36.38 0,0 55.035,7.79 55.035,-51.97 0,-59.76 0,-277.99 0,-277.99 0,0 -52.418,-72.75 -117.926,-36.38"
         style="fill:#ffffff;fill-opacity:1;fill-rule:nonzero;stroke:none"
         id="path80" />
      <path
         d="m 571.133,2201.15 -0.004,-313.27 c 0,0 7.871,-41.94 62.894,-34.54 0,0 55.024,-7.39 55.032,49.33 0,56.74 -0.008,263.94 -0.008,263.94 0,0 -52.41,69.06 -117.914,34.54"
         style="fill:#ffffff;fill-opacity:1;fill-rule:nonzero;stroke:none"
         id="path82" />
      <path
         d="m 790.336,1479.28 -0.008,235.01 c 0,0 7.879,31.43 62.899,25.9 0,0 55.039,5.53 55.039,-37.03 0,-42.55 -0.012,-197.96 -0.012,-197.96 0,0 -52.41,-51.82 -117.918,-25.92"
         style="fill:#ffffff;fill-opacity:1;fill-rule:nonzero;stroke:none"
         id="path84" />
      <path
         d="m 790.328,2102.39 0.008,-228.59 c 0,0 7.867,-30.59 62.918,-25.19 0,0 55.004,-5.4 55,36.01 0.004,41.38 0.012,192.56 0.012,192.56 0,0 -52.422,50.4 -117.938,25.21"
         style="fill:#ffffff;fill-opacity:1;fill-rule:nonzero;stroke:none"
         id="path86" />
      <path
         d="m 2283.34,370.23 h -379.69 c 0,0 -50.8,7.86 -41.85,62.891 0,0 -8.96,55.039 59.81,55.039 68.76,0 319.87,0 319.87,0 0,0 83.71,-52.422 41.86,-117.93"
         style="fill:#ffffff;fill-opacity:1;fill-rule:nonzero;stroke:none"
         id="path88" />
      <path
         d="m 1329.51,370.23 h 383.21 c 0,0 51.29,7.872 42.26,62.891 0,0 9.03,55.027 -60.37,55.039 -69.39,0 -322.85,-0.012 -322.85,-0.012 0,0 -84.48,-52.41 -42.25,-117.918"
         style="fill:#ffffff;fill-opacity:1;fill-rule:nonzero;stroke:none"
         id="path90" />
      <path
         d="m 2119.22,786.109 -235.01,-0.007 c 0,0 -31.43,7.878 -25.89,62.898 0,0 -5.54,55.039 37.02,55.039 42.55,0.012 197.97,-0.019 197.97,-0.019 0,0 51.81,-52.411 25.91,-117.911"
         style="fill:#ffffff;fill-opacity:1;fill-rule:nonzero;stroke:none"
         id="path92" />
      <path
         d="m 1496.11,786.102 228.58,0.007 c 0,0 30.61,7.86 25.2,62.911 0,0 5.41,55.011 -36.01,55 -41.38,0.011 -192.56,0.019 -192.56,0.019 0,0 -50.4,-52.418 -25.21,-117.937"
         style="fill:#ffffff;fill-opacity:1;fill-rule:nonzero;stroke:none"
         id="path94" />
      <path
         d="m 2817.83,2102.95 v -228.6 c 0,0 -7.87,-30.59 -62.89,-25.21 0,0 -55.04,-5.38 -55.04,36.01 0,41.4 0.01,192.59 0.01,192.59 0,0 52.41,50.41 117.92,25.21"
         style="fill:#ffffff;fill-opacity:1;fill-rule:nonzero;stroke:none"
         id="path96" />
      <path
         d="m 2817.83,1479.75 v 232.06 c 0,0 -7.86,31.07 -62.91,25.6 0,0 -55.01,5.47 -55.01,-36.57 0,-42.03 -0.01,-195.49 -0.01,-195.49 0,0 52.42,-51.18 117.93,-25.6"
         style="fill:#ffffff;fill-opacity:1;fill-rule:nonzero;stroke:none"
         id="path98" />
      <text
         xml:space="preserve"
         style="font-size:90px;fill:#ffffff;stroke-width:7.5"
         x="1519.9539"
         y="-1878.3521"
         id="text1"
         transform="scale(1,-1)"><tspan
           sodipodi:role="line"
           id="tspan1"
           style="fill:#ffffff;stroke-width:7.5"
           x="1519.9539"
           y="-1878.3521">Migleard</tspan></text>
      <path
         d="m 2422.0387,1793.1605 c 0,-364.3834 -281.8582,-659.7656 -629.548,-659.7656 -347.6812,0 -629.5394,295.3822 -629.5394,659.7656 0,364.3924 281.8582,659.7746 629.5394,659.7746 347.6898,0 629.548,-295.3822 629.548,-659.7746"
         style="fill:#ffffff;fill-opacity:1;fill-rule:nonzero;stroke:none;stroke-width:0.873877"
         id="path2" />
      <text
         xml:space="preserve"
         style="font-style:normal;font-variant:normal;font-weight:normal;font-stretch:normal;font-size:426.522px;font-family:Symbol;-inkscape-font-specification:Symbol;fill:#ffffff;stroke-width:6.66441"
         x="1701.4473"
         y="-1341.3987"
         id="text2"
         transform="scale(0.80145102,-1.2477369)"><tspan
           sodipodi:role="line"
           id="tspan2"
           style="font-size:426.522px;fill:#ffffff;stroke-width:6.66441"
           x="1701.4473"
           y="-1341.3987">Iliya</tspan></text>
    </g>
  </g>
</svg>
